# xmcd
#
# Track frame offsets: 
#        150
#        11595
#        27360
#        37910
#        56277
#        68105
#        80542
#        95502
#        109835
#        121832
#        136385
#
# Disc length: 2015 seconds
#
# Revision: 0
# Processed by: cddbd v1.4b42PL1 Copyright (c) Steve Scherf et al.
# Submitted via: ExactAudioCopy v0.90a11
#
DISCID=8607dd0b
DTITLE=Lonesomeville - Chris Cummings
DYEAR=1900
DGENRE=
TTITLE0=That'll Teach Here
TTITLE1=A Little At A Time
TTITLE2=No One Hurts Me More Than Me
TTITLE3=Temporarily Forever Mine
TTITLE4=Lonesomeville
TTITLE5=It Looks Like Pain
TTITLE6=Hammer And Nail
TTITLE7=Sunday Best
TTITLE8=Uncle
TTITLE9=You Don't Say
TTITLE10=Home
EXTD=
EXTT0=
EXTT1=
EXTT2=
EXTT3=
EXTT4=
EXTT5=
EXTT6=
EXTT7=
EXTT8=
EXTT9=
EXTT10=
PLAYORDER=
